<svg xmlns="http://www.w3.org/2000/svg" xmlns:xlink="http://www.w3.org/1999/xlink" viewBox="0 0 65.28 75.37"><defs><style>.cls-1,.cls-2,.cls-3,.cls-4{fill-rule:evenodd;}.cls-1{fill:url(#GradientFill_5);}.cls-2{fill:url(#未命名的渐变_23);}.cls-3{fill:url(#GradientFill_4);}.cls-4{fill:#060001;}</style><linearGradient id="GradientFill_5" x1="57.41" y1="5.11" x2="11.71" y2="30.45" gradientUnits="userSpaceOnUse"><stop offset="0" stop-color="#e7e5e4"/><stop offset="1" stop-color="#7e7c7c"/></linearGradient><linearGradient id="未命名的渐变_23" x1="75.09" y1="3.55" x2="35.09" y2="70.21" gradientUnits="userSpaceOnUse"><stop offset="0" stop-color="#53bec3"/><stop offset="1" stop-color="#b3c9d9"/></linearGradient><linearGradient id="GradientFill_4" x1="9.03" y1="63.47" x2="27.6" y2="21.77" gradientUnits="userSpaceOnUse"><stop offset="0" stop-color="#060001"/><stop offset="1" stop-color="#fff"/></linearGradient></defs><title>资源 7</title><g id="图层_2" data-name="图层 2"><g id="_" data-name="ͼ"><polygon class="cls-1" points="0 18.84 32.64 37.69 65.28 18.84 32.64 0 0 18.84"/><polygon class="cls-2" points="32.64 37.69 32.64 75.38 65.28 56.53 65.28 18.84 32.64 37.69"/><polygon class="cls-3" points="32.64 37.69 0 18.84 0 56.53 32.64 75.38 32.64 37.69"/><path class="cls-4" d="M21.47,17V31L9.1,38.68V24.1l11.77-6.8.6-.35ZM34.4,11.52l6.76,3.9V31l-9-6-8.08,4.37.07-14,7.48-4.32.67-.24,2.09.68Zm9.3,5.37.71.41,11.77,6.8V39.91L43.7,32.48V16.89ZM56.18,41.78,43.7,34.56l-2.54-1.47L32.1,27.25c-8.1,4.24-15.22,8.52-23,13.2V51.28l11.77,6.79.6.36V46.6L24,45l8.29-5.21,8.87,5.41v0l.73.48h0l1.8,1.18V58.48l.71-.41,11.77-6.79v-9.5ZM41.16,60,33.5,64.37l-.84.17-1-.21-7.81-4.51L24,47.56l8.27-5.14,8.91,4.75Z"/></g></g></svg>